<?xml version="1.0" standalone="no"?>
<!DOCTYPE svg PUBLIC "-//W3C//DTD SVG 20010904//EN"
 "http://www.w3.org/TR/2001/REC-SVG-20010904/DTD/svg10.dtd">
<svg version="1.0" xmlns="http://www.w3.org/2000/svg"
 width="300.000000pt" height="300.000000pt" viewBox="0 0 300.000000 300.000000"
 preserveAspectRatio="xMidYMid meet">
<metadata>
Created by potrace 1.14, written by Peter Selinger 2001-2017
</metadata>
<g transform="translate(0.000000,300.000000) scale(0.100000,-0.100000)"
fill="#000000" stroke="none">
<path d="M24 2943 c-11 -93 5 -319 43 -599 5 -39 4 -41 -28 -50 l-34 -10 -3
-1142 -2 -1142 134 0 134 0 17 42 c9 23 28 92 41 153 32 143 71 256 100 291
30 34 47 28 132 -51 53 -49 71 -76 135 -204 41 -81 77 -166 81 -189 l6 -42 61
0 60 0 -6 43 -7 43 95 17 c133 24 391 51 419 44 25 -7 88 -100 88 -130 0 -14
9 -17 46 -17 l47 0 -7 70 c-5 47 -4 70 3 70 6 0 11 -15 11 -34 0 -39 14 -53
35 -36 13 11 15 6 15 -29 l0 -41 56 0 55 0 -5 43 c-3 23 -7 64 -8 91 -3 47 -2
50 27 58 65 17 370 78 395 78 26 0 68 -36 87 -75 26 -53 23 -95 -12 -177 -6
-16 -1 -18 44 -18 60 0 58 -5 34 120 l-16 88 25 78 c33 101 51 228 47 327 -5
94 8 99 59 23 26 -39 32 -56 27 -80 -5 -23 -4 -27 4 -16 13 19 13 20 16 -62 3
-66 31 -173 62 -232 15 -29 17 -29 25 -11 6 16 7 14 3 -7 -3 -16 -1 -28 5 -28
5 0 10 -7 10 -16 0 -48 -76 93 -106 195 -14 46 -14 46 -8 6 8 -58 64 -181 102
-225 17 -21 32 -45 32 -53 0 -8 -13 -33 -30 -55 -17 -23 -30 -44 -30 -47 0 -2
104 -4 230 -5 l231 0 -3 77 c-3 67 -6 78 -22 81 -14 3 -17 0 -12 -13 5 -15 4
-16 -9 -5 -13 11 -13 15 -3 21 7 5 21 9 31 9 15 0 17 11 17 99 0 70 -4 101
-12 104 -10 4 -10 6 0 6 9 1 12 270 12 1311 l0 1310 -1484 0 -1485 0 -7 -57z
m128 -977 c-10 -16 -32 -79 -31 -91 0 -5 7 4 14 20 14 29 14 29 15 5 0 -20 2
-22 11 -10 8 11 9 5 4 -23 -5 -29 -3 -37 6 -32 7 5 10 24 6 56 -4 29 -2 49 3
49 15 0 13 -140 -2 -141 -7 0 -8 -2 -3 -5 6 -2 9 -46 8 -112 -2 -59 1 -143 6
-187 l8 -80 2 75 c2 56 5 69 11 53 12 -30 24 -29 18 0 -5 27 17 55 26 32 3 -8
1 -17 -5 -21 -12 -7 -4 -80 15 -130 16 -43 49 -205 43 -211 -6 -5 -24 72 -33
135 -3 28 -10 52 -15 52 -4 0 -10 10 -12 23 -2 12 -3 9 -2 -8 1 -16 -1 -39 -5
-50 -5 -13 -8 4 -9 44 -1 78 -11 96 -11 20 0 -38 -3 -50 -10 -39 -5 8 -10 10
-10 4 0 -6 9 -23 21 -38 11 -14 17 -31 13 -37 -5 -8 -3 -9 6 -4 10 6 12 4 7
-8 -3 -8 7 -41 23 -72 16 -31 31 -66 33 -78 3 -17 5 -15 6 8 1 26 3 28 12 12
6 -10 15 -44 20 -75 5 -31 11 -70 14 -87 4 -27 4 -27 -4 -5 -6 19 -8 11 -8
-32 1 -32 5 -52 9 -45 4 6 8 21 8 32 0 14 3 16 12 7 9 -9 9 -18 0 -37 -10 -21
-9 -25 6 -25 11 0 21 -13 28 -34 10 -32 9 -34 -8 -25 -14 7 -20 6 -24 -6 -9
-24 -24 -18 -24 10 0 14 -4 25 -10 25 -25 0 -5 -74 23 -89 19 -9 18 -10 -8 -4
-16 3 -37 10 -46 14 -38 19 -118 308 -120 432 0 29 -4 72 -9 97 -7 32 -8 12
-4 -69 2 -63 7 -126 10 -140 4 -19 3 -22 -4 -11 -19 28 -33 277 -30 508 2 126
-1 234 -6 239 -5 4 -11 2 -13 -5 -3 -6 -9 -10 -14 -6 -5 3 -9 -2 -9 -11 0 -10
5 -13 12 -9 8 5 9 0 6 -14 -4 -12 -3 -22 0 -22 4 0 8 -35 10 -77 2 -91 -6 -84
-38 31 -22 78 -22 81 -5 145 29 106 33 115 50 101 8 -7 11 -17 7 -24z m253
-15 c63 -62 172 -134 244 -163 46 -18 77 -22 176 -23 119 0 122 0 300 57 211
67 302 90 486 120 118 20 171 22 444 23 333 0 340 -1 685 -66 91 -18 169 -35
174 -39 4 -5 -2 -15 -15 -23 -21 -13 -33 -14 -94 -2 -97 20 -96 20 -80 -13 24
-48 38 -166 27 -236 -12 -74 -45 -157 -74 -183 -21 -18 -21 -18 -6 12 21 41
30 87 29 151 0 30 4 54 9 54 12 0 12 81 0 135 -8 34 -9 28 -7 -37 1 -43 -1
-78 -5 -78 -5 0 -8 24 -8 54 0 30 -4 58 -10 61 -5 3 -10 16 -9 28 1 20 2 20 8
-3 l7 -25 6 30 c4 17 2 35 -3 41 -5 6 -4 15 2 21 7 7 -22 15 -90 26 -138 23
-147 23 -156 -10 l-7 -28 -11 23 c-8 18 -8 26 4 33 11 7 9 9 -7 9 -20 0 -21
-3 -12 -44 8 -36 6 -52 -10 -88 -30 -67 -98 -264 -122 -353 -12 -44 -30 -105
-41 -135 -14 -41 -15 -50 -4 -36 8 11 15 25 15 32 0 6 7 17 15 24 9 8 13 21
10 34 -5 15 -4 17 3 7 8 -11 13 -8 27 13 23 35 35 33 35 -5 0 -48 -28 -97 -98
-171 -69 -73 -92 -86 -67 -38 23 45 13 36 -23 -18 -43 -66 -104 -127 -210
-211 -51 -40 -92 -74 -92 -77 0 -10 12 -2 50 32 37 34 40 35 40 14 0 -39 -51
-253 -71 -298 -23 -53 -100 -153 -190 -247 -38 -38 -66 -71 -64 -74 14 -13
218 226 254 298 23 45 56 163 72 261 14 87 25 114 44 106 8 -3 15 2 17 11 2
11 24 -8 66 -58 39 -46 60 -79 57 -89 -5 -12 -4 -12 6 -3 10 10 6 21 -20 53
-34 43 -34 60 3 60 23 0 67 -45 110 -112 17 -25 16 -28 -10 -80 -50 -100 -146
-253 -183 -292 -25 -27 -77 -58 -166 -102 -143 -69 -236 -106 -244 -98 -3 3
35 44 85 92 85 82 194 205 194 220 0 7 -9 -2 -81 -88 -53 -64 -178 -187 -205
-203 -12 -7 -12 -12 1 -37 20 -38 19 -53 -1 -17 -18 33 -35 27 -28 -9 3 -17 1
-23 -7 -19 -13 8 -4 66 11 75 6 4 12 15 15 26 2 10 15 42 28 69 13 28 31 66
40 85 22 49 73 212 91 290 12 50 22 71 46 91 16 14 30 28 30 32 0 14 -124 -93
-126 -109 -1 -9 -4 -17 -6 -18 -2 -2 -26 -21 -55 -43 -87 -68 -189 -74 -363
-23 -60 18 -187 78 -218 103 -30 24 -42 63 -29 96 14 37 3 39 152 -23 207 -87
321 -121 407 -121 60 0 81 4 95 18 21 21 6 22 -21 2 -11 -8 -41 -15 -66 -15
-127 0 -605 189 -718 284 -46 38 -63 47 -42 21 20 -25 -17 -19 -67 10 -43 26
-63 54 -88 126 -15 41 -4 53 24 26 18 -17 -2 22 -45 88 -24 36 -42 85 -64 175
-47 191 -48 215 -8 271 30 41 36 45 58 37 l25 -10 -37 -19 c-20 -10 -40 -24
-44 -31 -4 -6 10 -2 32 11 39 23 35 17 -25 -30 -40 -32 -37 -41 40 -114 l52
-50 -37 54 c-20 29 -36 58 -36 63 0 13 35 42 89 75 l44 26 -39 12 c-91 28
-293 143 -374 213 -39 34 -43 41 -31 56 20 24 31 20 86 -33z m-205 9 c0 -5 -7
-7 -15 -4 -8 4 -15 8 -15 10 0 2 7 4 15 4 8 0 15 -4 15 -10z m40 1 c0 -6 -4
-13 -10 -16 -5 -3 -10 1 -10 9 0 9 5 16 10 16 6 0 10 -4 10 -9z m77 -26 c20
-19 34 -37 31 -41 -4 -3 2 -23 13 -44 20 -38 17 -70 -7 -70 -8 0 -14 5 -14 10
0 6 -6 10 -13 10 -10 0 -14 -17 -14 -60 0 -65 11 -79 21 -29 6 29 29 37 32 11
1 -7 2 -16 3 -22 2 -19 17 -10 29 18 6 15 9 18 7 7 -3 -11 0 -27 5 -35 11 -17
13 -9 11 40 -1 25 -1 25 9 3 7 -17 3 -36 -14 -75 -13 -29 -27 -62 -31 -73 -7
-17 -9 -17 -12 -4 -2 9 5 32 16 50 23 38 26 49 11 49 -5 0 -10 -8 -10 -19 0
-10 -6 -24 -14 -30 -11 -9 -15 -6 -20 14 -4 14 -11 25 -16 25 -13 0 -13 -20 0
-40 6 -9 5 -17 -3 -22 -6 -3 -11 -23 -10 -43 1 -48 -7 -38 -12 14 -2 27 0 39
7 35 12 -8 1 35 -13 51 -11 11 -10 120 1 155 4 14 8 19 9 13 1 -7 7 -13 15
-13 8 0 17 -6 20 -12 3 -7 2 1 -1 17 -3 17 -10 33 -15 36 -5 3 -9 12 -8 20 4
29 -1 37 -25 43 -14 4 -25 11 -25 16 0 6 -7 10 -15 10 -8 0 -15 5 -15 10 0 20
30 9 67 -25z m-62 -23 c-12 -8 -17 -34 -18 -84 -1 -49 -14 -36 -22 22 -5 33
-4 41 4 30 9 -13 11 -11 11 7 0 36 11 56 24 43 7 -7 7 -13 1 -18z m42 -29 c1
-18 -2 -22 -7 -12 -10 15 -12 14 -28 -16 -11 -19 -11 -19 -12 3 0 12 5 22 10
22 6 0 10 7 10 15 0 27 25 16 27 -12z m-24 -264 c-4 -4 -8 22 -8 59 -1 37 -4
87 -7 112 -5 29 -4 38 2 25 8 -18 9 -17 11 10 2 17 5 -21 6 -84 2 -63 0 -118
-4 -122z m2362 -62 c-19 -79 -27 -95 -79 -165 -35 -49 -97 -100 -138 -115 -15
-5 -16 -4 -6 13 7 10 16 16 20 14 4 -3 8 4 8 15 0 12 5 21 10 21 6 0 10 10 10
23 0 16 3 18 9 8 15 -24 29 18 28 85 0 43 6 74 21 106 12 24 22 50 22 57 0 7
5 9 11 5 7 -4 10 4 8 22 -1 16 1 36 4 44 3 8 8 22 11 30 3 8 2 -10 -1 -40 -3
-30 -10 -60 -14 -66 -5 -6 -8 -20 -8 -30 1 -11 1 -28 -1 -39 -2 -15 -4 -13
-10 10 l-8 30 -1 -27 c0 -15 -5 -30 -11 -33 -5 -3 -10 -13 -10 -21 0 -9 5 -12
11 -8 7 4 10 1 7 -7 -3 -8 -11 -13 -17 -12 -13 3 -13 -4 -1 -32 5 -11 9 -14 9
-7 1 7 10 31 20 55 27 57 51 160 54 229 2 32 5 59 8 61 2 2 13 9 24 15 19 10
20 7 23 -81 2 -61 -2 -115 -13 -160z m-2395 190 c0 -18 -2 -19 -10 -7 -13 20
-13 43 0 35 6 -3 10 -16 10 -28z m160 14 c0 -6 -4 -13 -10 -16 -5 -3 -10 1
-10 9 0 9 5 16 10 16 6 0 10 -4 10 -9z m2152 -57 c-8 -14 -9 -13 -9 10 0 18 3
24 9 18 7 -7 7 -16 0 -28z m-2334 -44 c0 -9 -3 -7 -8 5 -5 11 -8 29 -8 40 0
16 2 15 8 -5 4 -14 8 -32 8 -40z m42 6 c0 -39 -6 -31 -14 19 -5 29 -4 36 3 25
6 -8 11 -28 11 -44z m2225 -30 c-14 -32 -29 -56 -32 -52 -3 3 -1 11 4 18 6 7
19 38 29 68 10 30 20 48 21 40 2 -9 -8 -42 -22 -74z m-1988 11 c7 -4 13 -13
13 -20 0 -7 -4 -6 -10 3 -8 13 -10 13 -10 -2 0 -9 -4 -19 -10 -23 -5 -3 -9 7
-8 22 1 15 -2 37 -6 48 l-8 20 13 -20 c7 -11 18 -24 26 -28z m2053 14 c0 -6
-4 -13 -10 -16 -5 -3 -10 -16 -10 -27 0 -12 -3 -19 -6 -15 -9 8 6 67 17 67 5
0 9 -4 9 -9z m-2317 -65 c-4 -5 -10 0 -14 11 -4 12 -12 24 -18 28 -6 3 -11 11
-11 17 0 6 11 -2 24 -17 14 -16 22 -33 19 -39z m224 42 c-3 -8 -6 -5 -6 6 -1
11 2 17 5 13 3 -3 4 -12 1 -19z m1946 -14 c-10 -15 -19 -22 -21 -15 -2 7 4 19
14 26 26 20 27 19 7 -11z m-1880 -19 c-3 -9 -8 -14 -10 -11 -3 3 -2 9 2 15 9
16 15 13 8 -4z m1907 -14 c-6 -12 -15 -21 -20 -21 -5 0 -7 -7 -4 -15 3 -8 -1
-23 -9 -35 -14 -21 -15 -21 -20 -1 -3 11 0 19 5 18 6 -1 13 4 16 12 3 10 0 11
-9 5 -8 -4 0 8 16 27 33 39 43 43 25 10z m-1978 -23 c-6 -6 -7 0 -4 19 5 21 7
23 10 9 2 -10 0 -22 -6 -28z m1910 -10 c-7 -7 -9 -5 -7 8 2 11 4 26 6 34 1 8
4 4 6 -9 3 -13 0 -28 -5 -33z m-2073 2 c0 -10 -3 -8 -9 5 -12 27 -12 43 0 25
5 -8 9 -22 9 -30z m207 18 c-6 -44 -18 -78 -28 -78 -6 0 -8 -6 -5 -13 3 -8 1
-20 -4 -28 -6 -10 -9 -6 -9 15 0 16 7 38 17 48 9 10 13 21 9 25 -4 4 -11 1
-16 -7 -7 -11 -10 -11 -10 -2 0 7 7 15 15 18 8 3 17 14 20 25 9 26 14 24 11
-3z m-79 -10 c-3 -8 -6 -5 -6 6 -1 11 2 17 5 13 3 -3 4 -12 1 -19z m143 0 c0
-19 -2 -20 -10 -8 -13 19 -13 30 0 30 6 0 10 -10 10 -22z m-194 -2 c11 -11 12
-23 4 -53 -9 -36 -9 -36 -6 -5 2 24 -1 31 -11 28 -9 -4 -13 3 -13 19 0 29 6
31 26 11z m159 -42 c-12 -19 -14 -29 -5 -39 6 -8 9 -30 5 -52 -4 -30 -3 -34 5
-18 9 18 10 17 5 -5 -2 -14 -5 -31 -5 -37 0 -7 -4 -13 -9 -13 -5 0 -7 10 -3
22 3 13 1 19 -5 15 -6 -4 -10 6 -11 23 0 17 4 30 9 30 5 0 9 7 9 16 0 14 -3
14 -15 4 -21 -17 -19 -1 7 56 12 27 23 43 26 36 2 -7 -4 -24 -13 -38z m1910 6
c-9 -16 -18 -30 -21 -30 -2 0 2 14 11 30 9 17 18 30 21 30 2 0 -2 -13 -11 -30z
m45 -2 c-1 -26 -3 -30 -10 -16 -6 9 -7 23 -4 32 9 25 14 19 14 -16z m-2205
-43 c3 -41 2 -44 -5 -21 -5 16 -7 33 -4 37 2 4 0 10 -6 14 -5 3 -10 14 -10 23
0 37 20 -7 25 -53z m138 -6 c-8 -8 -13 -7 -18 2 -5 7 -4 10 3 5 7 -4 9 6 7 31
l-5 38 12 -33 c8 -23 8 -36 1 -43z m1923 45 c-4 -9 -9 -15 -11 -12 -3 3 -3 13
1 22 4 9 9 15 11 12 3 -3 3 -13 -1 -22z m-1779 -131 c-1 -51 -6 -73 -15 -73
-9 0 -10 8 -5 28 5 15 7 63 7 107 -2 64 0 73 7 45 5 -19 8 -68 6 -107z m1899
112 c-3 -8 -1 -15 4 -15 14 0 12 -15 -6 -58 -10 -20 -18 -43 -20 -50 -7 -35
-13 -19 -11 29 2 45 5 54 20 53 9 -1 17 2 17 7 0 5 -7 9 -15 9 -13 0 -14 4 -5
20 12 23 25 27 16 5z m-2098 -55 c0 -9 -3 -7 -8 5 -5 11 -8 29 -8 40 0 16 2
15 8 -5 4 -14 8 -32 8 -40z m1987 18 c-4 -18 -13 -45 -21 -59 -14 -28 -44 -57
-44 -43 0 19 31 108 41 120 20 24 31 16 24 -18z m-2027 -22 c6 -3 8 -16 5 -29
-4 -18 -3 -19 7 -7 9 12 11 12 8 1 -2 -8 -11 -15 -20 -17 -10 -1 -14 4 -11 16
3 10 0 21 -6 24 -6 4 -11 19 -10 34 0 25 1 26 9 6 5 -12 13 -25 18 -28z m2055
29 c-3 -9 -8 -14 -10 -11 -3 3 -2 9 2 15 9 16 15 13 8 -4z m-1966 -90 c-2 -65
6 -85 16 -44 3 12 4 36 1 53 l-4 31 10 -29 c5 -16 14 -32 20 -36 6 -4 12 -27
13 -51 1 -24 6 -47 11 -50 5 -4 5 -28 1 -55 l-8 -49 -10 43 c-10 42 -26 57
-28 25 0 -15 -2 -15 -9 2 -7 16 -9 16 -9 4 -1 -25 31 -119 41 -119 12 0 10 7
-8 35 -9 13 -14 30 -11 37 3 8 10 2 17 -15 10 -20 16 -24 22 -15 4 8 7 -4 5
-27 -1 -22 -5 -42 -8 -45 -4 -3 -3 -14 1 -25 6 -15 9 -8 14 30 4 28 9 64 12
80 3 24 2 26 -5 10 -7 -14 -10 -16 -10 -5 -1 9 3 20 8 25 15 16 25 59 12 51
-7 -5 -11 5 -10 31 0 36 1 37 11 13 6 -14 10 -81 9 -153 -1 -84 2 -126 9 -122
5 3 10 0 10 -9 0 -8 -4 -16 -10 -18 -5 -2 -11 -22 -12 -45 -2 -51 -14 -56 -24
-10 -6 28 -8 30 -16 12 -7 -17 -8 -15 -5 8 4 22 2 25 -9 16 -8 -6 -14 -9 -14
-6 0 3 -3 14 -6 24 -5 15 -4 16 6 3 10 -13 11 -12 5 5 -3 11 -12 37 -18 58 -7
20 -15 37 -19 37 -5 0 -8 9 -8 20 0 14 -6 20 -16 18 -10 -2 -19 4 -21 12 -4
13 -3 13 7 0 8 -11 9 -6 4 25 -8 49 -14 58 -14 20 0 -48 -19 -15 -30 50 -6 36
-6 63 -1 68 5 5 7 16 3 25 -5 13 -7 12 -13 -4 -5 -14 -8 -8 -8 21 l-1 40 21
-30 20 -30 -5 35 c-5 28 -4 31 4 13 5 -13 14 -23 20 -23 5 0 10 -8 10 -17 1
-16 2 -16 12 1 8 14 8 24 -1 37 -14 23 -14 49 -1 49 6 0 10 7 10 15 0 8 2 15
4 15 2 0 3 -29 3 -65z m71 23 c-1 -13 2 -33 6 -45 9 -28 0 -30 -14 -3 -6 11
-8 31 -4 45 8 31 14 33 12 3z m2012 2 c0 -11 -4 -20 -9 -20 -5 0 -7 9 -4 20 3
11 7 20 9 20 2 0 4 -9 4 -20z m-95 -25 c1 -19 -2 -22 -12 -13 -10 8 -13 6 -13
-5 0 -9 4 -19 10 -22 5 -3 9 -17 8 -30 -1 -13 -6 -21 -10 -19 -4 3 -5 12 -2
22 2 9 -1 7 -8 -6 -9 -19 -9 -25 3 -33 10 -6 10 -9 2 -9 -8 0 -13 -13 -12 -32
0 -28 2 -30 9 -13 7 16 9 11 9 -20 1 -29 -2 -36 -9 -25 -8 13 -10 12 -11 -5
-1 -11 -5 -2 -9 20 -5 22 -5 59 0 82 4 23 5 45 2 48 -3 3 0 5 6 5 7 0 9 11 6
30 -4 18 -1 36 6 45 16 19 25 11 25 -20z m-1812 -97 c-3 -18 -10 -25 -19 -21
-8 3 -14 -1 -14 -9 0 -20 28 -19 36 1 4 10 13 -13 24 -59 17 -69 17 -76 2 -93
-12 -13 -13 -20 -4 -29 9 -9 12 -9 12 2 0 7 2 11 5 8 3 -3 3 -13 -1 -22 -6
-15 -8 -15 -21 4 -8 11 -11 25 -7 31 3 6 2 14 -3 18 -6 3 -13 20 -16 36 l-7
30 17 -32 c9 -18 20 -33 25 -33 11 0 10 18 -2 25 -6 4 -8 10 -6 14 10 16 -14
78 -30 78 -11 0 -14 -7 -9 -25 3 -13 2 -21 -3 -18 -24 15 -20 111 4 111 10 0
10 8 1 45 -5 20 -4 19 7 -5 8 -17 12 -42 9 -57z m-314 -2 c1 -42 -5 -29 -12
24 -4 30 -3 38 3 25 5 -11 9 -33 9 -49z m268 2 c-3 -8 -6 -5 -6 6 -1 11 2 17
5 13 3 -3 4 -12 1 -19z m1966 -55 c-11 -165 -30 -280 -52 -317 -31 -50 -42
-45 -24 12 8 26 16 86 17 133 0 48 5 82 9 75 4 -6 7 19 5 57 -2 37 0 67 5 67
4 0 7 6 7 13 0 14 19 37 31 37 4 0 5 -35 2 -77z m-1876 35 c-3 -8 -6 -5 -6 6
-1 11 2 17 5 13 3 -3 4 -12 1 -19z m1794 -83 c-4 -48 -8 -63 -13 -47 -6 22 -2
79 8 111 9 27 10 5 5 -64z m-1765 10 c14 -46 15 -58 4 -68 -10 -10 -12 -8 -6
7 3 10 2 24 -3 30 -11 13 -26 86 -18 86 3 0 13 -25 23 -55z m44 -9 c0 -5 -7
-3 -15 4 -8 7 -15 20 -15 28 0 13 3 12 15 -4 8 -10 15 -23 15 -28z m1637 -53
c-3 -10 -5 -2 -5 17 0 19 2 27 5 18 2 -10 2 -26 0 -35z m30 -40 c-3 -10 -5 -2
-5 17 0 19 2 27 5 18 2 -10 2 -26 0 -35z m-1827 -8 c0 -5 -5 -3 -10 5 -5 8
-10 20 -10 25 0 6 5 3 10 -5 5 -8 10 -19 10 -25z m144 14 c-3 -5 -10 -7 -15
-3 -5 3 -7 10 -3 15 3 5 10 7 15 3 5 -3 7 -10 3 -15z m1716 -54 c-6 -19 -9
-39 -5 -45 3 -5 1 -10 -5 -10 -8 0 -10 -10 -6 -27 5 -22 4 -25 -4 -13 -8 11
-9 5 -5 -25 5 -30 4 -36 -4 -25 -8 11 -10 2 -7 -35 2 -27 2 -44 -1 -37 -2 6
-9 12 -15 12 -6 0 -8 -6 -5 -14 6 -16 -19 -43 -30 -33 -3 4 1 9 10 13 9 3 14
11 11 18 -3 7 2 19 11 26 17 14 21 35 4 24 -8 -4 -9 1 -4 17 4 13 12 26 16 27
5 2 7 8 4 12 -5 8 1 39 28 145 7 25 12 33 14 22 3 -9 -1 -33 -7 -52z m-73 33
c-3 -8 -6 -5 -6 6 -1 11 2 17 5 13 3 -3 4 -12 1 -19z m-1635 -20 c-6 -6 -12
-4 -16 7 -3 9 -2 13 4 10 6 -3 10 0 11 7 0 10 2 10 6 0 3 -8 1 -18 -5 -24z
m-101 -16 c16 -39 15 -62 -3 -62 -6 0 -8 11 -4 25 4 14 2 25 -3 25 -5 0 -11
11 -13 25 -8 37 5 30 23 -13z m-32 -62 c0 -3 -8 11 -18 30 -10 19 -16 41 -13
49 3 8 11 -4 19 -30 7 -24 13 -46 12 -49z m94 70 c3 -11 1 -20 -4 -20 -5 0 -9
9 -9 20 0 11 2 20 4 20 2 0 6 -9 9 -20z m1664 -12 c-3 -8 -6 -5 -6 6 -1 11 2
17 5 13 3 -3 4 -12 1 -19z m40 -10 c-3 -7 -5 -2 -5 12 0 14 2 19 5 13 2 -7 2
-19 0 -25z m-1929 -13 c-3 -3 -9 2 -12 12 -6 14 -5 15 5 6 7 -7 10 -15 7 -18z
m284 16 c6 10 7 7 3 -9 -5 -16 -3 -22 7 -20 8 2 13 -7 14 -24 1 -16 0 -28 -2
-28 -5 0 -44 78 -43 87 0 4 3 2 6 -6 5 -11 7 -11 15 0z m-52 -26 c4 3 6 -5 2
-17 -3 -14 -2 -19 6 -14 14 8 15 4 6 -19 -5 -13 -9 -11 -20 11 -8 14 -14 34
-13 43 0 10 2 11 6 3 2 -6 8 -10 13 -7z m-245 -35 c3 -5 1 -10 -4 -10 -6 0
-11 5 -11 10 0 6 2 10 4 10 3 0 8 -4 11 -10z m114 -34 c-9 -8 -10 -7 -5 7 3
10 7 24 7 30 1 7 3 4 6 -7 3 -10 -1 -23 -8 -30z m124 -29 c18 -37 30 -67 26
-67 -5 0 -11 -11 -15 -25 -3 -14 -10 -25 -15 -25 -13 0 -11 14 3 28 6 6 8 15
4 19 -4 4 -11 1 -16 -7 -7 -12 -9 -11 -9 5 0 11 -3 34 -6 50 -5 23 -4 26 4 15
6 -8 11 -23 11 -32 0 -10 5 -18 10 -18 15 0 12 12 -15 66 -14 27 -24 39 -21
27 2 -13 0 -26 -5 -29 -10 -6 -13 49 -2 59 8 9 7 11 46 -66z m-203 0 c0 -5 -4
-5 -10 -2 -5 3 -10 0 -10 -7 0 -8 -5 -6 -11 5 -6 10 -8 25 -5 34 6 14 8 14 21
-3 8 -10 15 -23 15 -27z m249 -2 c9 -36 9 -38 -4 -21 -8 10 -12 23 -9 27 3 5
1 9 -5 9 -6 0 -8 7 -4 15 7 20 9 18 22 -30z m94 -23 c10 -5 9 -22 -3 -22 -5 0
-12 11 -16 25 -3 14 -9 23 -13 21 -3 -2 -7 8 -7 22 -2 25 -1 25 15 -8 9 -19
19 -36 24 -38z m-214 8 c15 0 24 -82 11 -110 -9 -22 -10 -19 -6 19 3 33 2 41
-6 30 -8 -12 -9 -12 -5 1 7 23 -11 62 -25 54 -8 -5 -9 -2 -5 10 4 10 7 23 8
29 0 7 4 2 9 -10 5 -13 14 -23 19 -23z m-39 20 c0 -5 -2 -10 -4 -10 -3 0 -8 5
-11 10 -3 6 -1 10 4 10 6 0 11 -4 11 -10z m500 -46 c0 -19 -11 -44 -20 -44 -4
0 -11 11 -14 25 -4 14 -11 25 -16 25 -6 0 -10 -2 -10 -5 0 -9 100 -177 122
-204 13 -16 34 -44 48 -62 14 -18 32 -41 40 -50 13 -15 176 -156 205 -177 6
-4 35 -27 65 -52 30 -25 57 -46 59 -47 2 -2 2 -5 -1 -8 -7 -7 -262 115 -368
175 -47 27 -111 72 -143 101 -32 28 -60 49 -63 46 -9 -8 111 -103 183 -145 84
-49 244 -129 343 -172 41 -18 80 -37 85 -42 17 -17 -31 0 -165 59 -147 65
-179 77 -165 65 6 -5 81 -40 168 -77 86 -38 157 -72 157 -76 0 -15 -267 41
-440 92 -148 44 -214 76 -353 174 -176 123 -190 137 -182 177 4 18 9 36 11 40
9 14 110 -25 144 -55 29 -27 31 -27 11 -4 -14 15 -20 27 -14 27 13 0 64 -51
63 -63 -1 -8 118 -107 128 -107 2 0 -31 34 -74 75 -79 75 -89 94 -40 76 14 -6
26 -7 26 -2 0 4 -18 47 -40 95 -22 47 -40 93 -40 101 0 27 20 26 30 -2 13 -36
32 -74 26 -51 -3 9 0 19 7 21 9 3 8 8 -2 20 -7 10 -10 17 -5 17 5 0 2 5 -6 11
-13 9 -13 10 0 7 14 -4 45 -48 56 -80 4 -10 10 -18 14 -18 4 0 12 -12 19 -27
l12 -28 -25 30 c-14 17 -28 38 -31 48 -6 15 -25 25 -25 12 0 -21 55 -118 85
-150 l37 -40 -34 45 c-59 77 -52 78 17 3 37 -40 71 -73 75 -73 5 0 -25 51 -66
112 -41 62 -74 115 -74 118 0 3 20 31 45 62 l45 58 45 -22 c25 -12 45 -27 45
-34z m-517 -6 c-9 -20 -10 -20 -10 10 0 22 4 29 10 23 7 -7 7 -18 0 -33z m387
35 c0 -8 -51 -83 -56 -83 -4 0 -44 77 -44 85 0 3 23 5 50 5 28 0 50 -3 50 -7z
m-436 -42 c-6 -6 -24 19 -24 34 1 6 7 1 15 -9 8 -11 12 -22 9 -25z m-13 -21
c10 -34 14 -37 24 -24 10 14 13 13 26 -7 30 -46 30 -56 -1 -55 -16 1 -28 3
-28 6 1 3 -11 31 -25 63 -30 63 -32 71 -17 62 5 -3 15 -24 21 -45z m98 23 c0
-10 3 -34 7 -53 l7 -35 -27 28 c-28 30 -35 47 -11 27 9 -8 15 -9 15 -2 0 6 -4
14 -10 17 -6 4 -5 11 3 20 16 18 16 18 16 -2z m-69 -17 c0 -3 -4 -8 -10 -11
-5 -3 -10 -1 -10 4 0 6 5 11 10 11 6 0 10 -2 10 -4z m202 -28 c-6 -6 -8 -17
-5 -24 3 -8 0 -14 -6 -14 -12 0 -14 20 -5 44 3 9 11 13 16 10 6 -4 6 -10 0
-16z m-315 6 c-3 -3 -12 -4 -19 -1 -8 3 -5 6 6 6 11 1 17 -2 13 -5z m66 -57
c-3 -4 -11 -3 -19 4 -8 6 -14 8 -14 4 0 -5 -2 -6 -5 -3 -3 3 0 18 6 34 l11 29
13 -30 c7 -16 11 -34 8 -38z m188 9 c5 3 8 0 7 -7 -2 -7 16 -20 40 -28 23 -9
42 -22 42 -29 0 -10 -4 -12 -12 -4 -7 5 -29 13 -48 16 -35 7 -35 7 8 -14 24
-12 42 -23 40 -25 -7 -7 -78 18 -78 28 0 5 -6 7 -14 4 -7 -3 -23 7 -35 24 -15
20 -17 27 -6 23 10 -4 19 4 27 22 11 28 12 28 16 6 2 -12 8 -20 13 -16z m99 2
c0 -6 -7 -5 -15 2 -8 7 -15 17 -15 22 0 6 7 5 15 -2 8 -7 15 -17 15 -22z m20
11 c0 -5 13 -37 29 -70 28 -59 28 -61 7 -54 -25 7 -49 13 -57 14 -4 1 -6 15
-5 32 1 27 -4 33 -31 43 -42 15 -50 24 -19 22 14 0 26 -4 26 -8 0 -5 8 -8 19
-8 21 0 37 -50 19 -61 -7 -4 -7 -9 0 -13 19 -12 30 24 17 53 -21 43 -29 74
-16 67 6 -4 11 -11 11 -17z m-190 -59 c18 -12 2 -12 -25 0 -13 6 -15 9 -5 9 8
0 22 -4 30 -9z m2169 -244 c-2 -2 -17 -6 -34 -10 -22 -5 -26 -4 -15 4 14 9 59
15 49 6z m-199 -103 c0 -12 -4 -25 -10 -28 -6 -4 -10 11 -10 37 0 31 3 39 10
28 5 -8 10 -25 10 -37z m61 -116 c-10 -9 -11 -8 -5 6 3 10 9 15 12 12 3 -3 0
-11 -7 -18z m129 -37 c0 -13 -11 -13 -30 0 -12 8 -11 10 8 10 12 0 22 -4 22
-10z m101 -8 c-7 -2 -18 1 -23 6 -8 8 -4 9 13 5 13 -4 18 -8 10 -11z m-11 -21
c0 -5 -9 -7 -20 -4 -11 3 -20 7 -20 9 0 2 9 4 20 4 11 0 20 -4 20 -9z m75 -21
c-3 -5 -12 -10 -18 -10 -7 0 -6 4 3 10 19 12 23 12 15 0z m-1258 -52 c-3 -8
-6 -5 -6 6 -1 11 2 17 5 13 3 -3 4 -12 1 -19z"/>
<path d="M257 1088 c6 -7 11 -31 11 -52 1 -22 5 -42 10 -45 5 -3 15 -30 22
-59 8 -37 16 -50 23 -43 7 7 6 16 -4 27 -8 10 -9 15 -3 11 7 -4 14 3 18 19 5
19 0 36 -18 63 -13 20 -30 48 -37 64 -7 15 -17 27 -22 27 -6 0 -6 -5 0 -12z
m73 -132 c0 -6 -4 -5 -9 3 -7 11 -9 11 -14 0 -3 -8 -6 0 -6 16 0 29 0 29 14
11 8 -11 15 -25 15 -30z"/>
<path d="M365 890 c-4 -6 -3 -16 3 -22 6 -6 12 -6 17 2 4 6 3 16 -3 22 -6 6
-12 6 -17 -2z"/>
<path d="M1695 1909 c-244 -33 -376 -67 -760 -194 -5 -2 0 -4 13 -4 31 -1 28
-14 -14 -51 -20 -17 -34 -34 -31 -37 3 -3 36 11 73 31 37 20 70 33 73 31 14
-14 12 -116 -3 -147 l-16 -33 20 24 c15 18 20 38 20 87 0 67 4 73 35 50 18
-13 17 -16 -15 -95 -31 -74 -36 -82 -56 -77 -13 4 -26 2 -29 -4 -8 -13 -61
-13 -86 1 -11 5 -29 25 -40 42 -18 28 -20 29 -14 7 4 -14 19 -41 34 -60 86
-109 272 -48 288 94 4 30 9 43 17 39 6 -3 1 5 -12 19 -28 31 -16 43 23 22 15
-8 30 -12 33 -10 2 3 -7 11 -22 17 -53 25 -25 44 38 27 l46 -12 0 -47 c0 -25
3 -66 6 -91 6 -43 4 -47 -37 -88 l-44 -43 47 6 c78 10 208 58 272 101 34 22
94 73 135 113 40 40 77 73 82 73 6 0 21 7 34 16 14 9 25 13 25 9 0 -16 -82
-181 -107 -213 -23 -31 -24 -33 -4 -23 26 14 96 101 122 153 11 21 23 36 28
34 4 -3 23 11 42 30 37 38 119 94 138 94 7 0 18 -15 26 -32 14 -33 14 -33 15
-6 0 48 21 79 49 76 13 -2 27 -10 29 -18 5 -13 3 -13 -12 -1 -14 12 -16 12
-10 -2 7 -19 -8 -68 -47 -156 -24 -52 -31 -61 -43 -52 -10 8 -16 9 -21 1 -12
-19 -77 -11 -102 12 -39 37 -29 -8 11 -48 29 -29 41 -34 80 -34 54 0 96 19
125 56 25 32 61 143 61 190 0 19 3 34 8 34 10 0 61 -33 96 -62 31 -26 31 -27
0 -102 -13 -34 13 -8 39 37 20 36 23 54 20 107 -6 112 -1 105 -79 106 -38 1
-51 -1 -30 -3 36 -4 65 -24 66 -47 0 -4 -10 -5 -22 -1 -13 4 -39 10 -58 14
-26 5 -35 12 -35 26 0 19 -8 20 -230 21 -127 1 -257 -2 -290 -7z m290 -34
c-61 -35 -72 -33 -61 10 6 23 11 25 64 25 l57 -1 -60 -34z m132 -11 c-48 -17
-106 -55 -182 -119 -36 -31 -65 -53 -65 -51 0 18 26 55 53 74 17 12 26 22 20
22 -7 0 -15 -4 -18 -10 -3 -5 -11 -10 -16 -10 -28 0 9 25 156 106 55 31 61 32
73 16 11 -14 8 -18 -21 -28z m-257 -20 c-6 -27 -17 -53 -24 -59 -7 -5 -19 -21
-26 -35 -7 -14 -15 -20 -17 -14 -2 7 10 33 26 59 16 26 33 60 36 77 4 16 9 27
11 25 3 -2 0 -26 -6 -53z m-349 -51 c-42 -83 -63 -103 -98 -94 l-23 6 31 60
c39 77 65 105 101 105 l28 0 -39 -77z m824 37 c1 0 5 -9 8 -20 4 -17 1 -17
-32 7 -56 42 -59 46 -17 29 21 -9 40 -16 41 -16z m-989 -12 c-2 -7 -10 -35
-16 -61 -13 -47 -14 -48 -44 -41 -17 3 -33 8 -35 10 -3 3 89 104 95 104 2 0 2
-6 0 -12z m-126 -36 c0 -23 -28 -44 -49 -37 -21 6 -22 8 -5 26 17 19 54 26 54
11z m-62 -67 c12 -3 22 -11 22 -17 0 -10 -10 -9 -55 7 -11 3 -8 -1 8 -10 15
-8 27 -20 27 -26 0 -11 -9 -7 -53 24 -22 15 -26 22 -15 28 13 8 18 8 66 -6z
m262 -85 c-34 -58 -72 -111 -76 -107 -2 2 4 32 13 68 16 66 26 76 85 88 4 0
-6 -22 -22 -49z"/>
<path d="M783 1693 c9 -2 23 -2 30 0 6 3 -1 5 -18 5 -16 0 -22 -2 -12 -5z"/>
<path d="M836 1693 c5 -5 11 -11 14 -15 3 -3 14 0 24 8 19 13 18 14 -14 14
-18 0 -29 -3 -24 -7z"/>
<path d="M2081 1674 c0 -11 3 -14 6 -6 3 7 2 16 -1 19 -3 4 -6 -2 -5 -13z"/>
<path d="M2234 1548 c-41 -30 -52 -42 -29 -30 26 15 72 51 64 52 -4 0 -19 -10
-35 -22z"/>
<path d="M1950 1534 c48 -22 208 -50 219 -38 6 5 -10 10 -42 11 -44 1 -98 12
-194 38 -10 3 -2 -2 17 -11z"/>
<path d="M1115 1435 c-16 -8 -23 -14 -15 -14 8 0 26 6 40 14 32 18 15 18 -25
0z"/>
<path d="M830 1410 c8 -5 22 -9 30 -9 10 0 8 3 -5 9 -27 12 -43 12 -25 0z"/>
<path d="M1045 1410 c-13 -6 -15 -9 -5 -9 8 0 22 4 30 9 18 12 2 12 -25 0z"/>
<path d="M900 1390 c25 -8 87 -13 79 -6 -2 2 -26 6 -54 9 -34 4 -42 3 -25 -3z"/>
<path d="M998 1393 c7 -3 16 -2 19 1 4 3 -2 6 -13 5 -11 0 -14 -3 -6 -6z"/>
<path d="M1733 1310 c-7 -17 -23 -34 -39 -40 -15 -6 -42 -24 -61 -40 l-34 -30
28 -10 c15 -6 34 -13 41 -15 23 -8 56 40 70 100 15 63 12 80 -5 35z m-18 -67
c-11 -45 -34 -64 -59 -51 -11 6 -23 12 -25 14 -8 7 65 59 88 63 2 1 0 -11 -4
-26z"/>
<path d="M2200 1200 c-6 -11 -8 -20 -6 -20 3 0 10 9 16 20 6 11 8 20 6 20 -3
0 -10 -9 -16 -20z"/>
<path d="M1596 1004 c-38 -8 -71 -16 -74 -19 -9 -9 20 -5 108 14 98 22 69 26
-34 5z"/>
<path d="M1981 884 c0 -11 3 -14 6 -6 3 7 2 16 -1 19 -3 4 -6 -2 -5 -13z"/>
<path d="M1965 805 c-3 -26 -4 -49 -2 -51 3 -3 8 16 12 41 3 26 4 49 2 51 -3
3 -8 -16 -12 -41z"/>
<path d="M2094 728 c-10 -24 -46 -83 -79 -133 -70 -105 -82 -124 -68 -110 46
46 182 270 171 281 -3 2 -13 -15 -24 -38z"/>
<path d="M1941 684 c-6 -32 -9 -59 -7 -61 2 -3 10 21 16 52 6 31 10 59 7 61
-2 2 -9 -21 -16 -52z"/>
<path d="M1918 595 c-3 -11 -9 -29 -13 -40 -3 -11 1 -7 10 8 9 16 15 33 12 40
-2 6 -6 3 -9 -8z"/>
<path d="M2432 1440 c0 -14 2 -19 5 -12 2 6 2 18 0 25 -3 6 -5 1 -5 -13z"/>
<path d="M394 1284 c13 -28 41 -32 50 -7 4 10 4 14 0 10 -4 -4 -14 -1 -22 5
-26 22 -40 18 -28 -8z"/>
<path d="M810 745 c0 -5 5 -17 10 -25 5 -8 10 -10 10 -5 0 6 -5 17 -10 25 -5
8 -10 11 -10 5z"/>
<path d="M865 632 c20 -41 116 -138 178 -181 65 -45 59 -32 -10 20 -51 38
-128 117 -170 174 -10 15 -10 11 2 -13z"/>
<path d="M1100 415 c0 -7 101 -57 106 -53 2 2 -21 16 -51 31 -30 15 -55 25
-55 22z"/>
<path d="M848 883 c6 -2 18 -2 25 0 6 3 1 5 -13 5 -14 0 -19 -2 -12 -5z"/>
<path d="M486 795 c-8 -22 3 -40 16 -27 7 7 7 16 1 27 -9 16 -10 16 -17 0z"/>
<path d="M420 786 c0 -8 4 -17 9 -20 5 -4 7 3 4 14 -6 23 -13 26 -13 6z"/>
<path d="M601 751 c-8 -5 -10 -14 -7 -20 9 -13 33 -15 40 -2 9 14 -18 31 -33
22z"/>
<path d="M766 681 c-3 -5 1 -11 9 -14 9 -4 12 -1 8 9 -6 16 -10 17 -17 5z"/>
<path d="M2452 460 c0 -19 2 -27 5 -17 2 9 2 25 0 35 -3 9 -5 1 -5 -18z"/>
<path d="M2025 99 c-135 -28 -135 -28 -135 -49 0 -10 5 -22 10 -25 6 -3 64 6
130 22 110 25 120 29 120 50 0 27 -4 27 -125 2z"/>
</g>
</svg>
